<?xml version="1.0" encoding="utf-8"?>
<!-- Generator: Adobe Illustrator 25.0.0, SVG Export Plug-In . SVG Version: 6.00 Build 0)  -->
<svg version="1.1" id="Layer_1" xmlns="http://www.w3.org/2000/svg" xmlns:xlink="http://www.w3.org/1999/xlink" x="0px" y="0px"
	 viewBox="0 0 386 74" style="enable-background:new 0 0 386 74;" xml:space="preserve">
<style type="text/css">
	.st0{fill:#2A3739;}
	.st1{fill:#66ACFC;}
	.st2{fill:#FF7E98;}
	.st3{fill:#FF675E;}
	.st4{fill:#FFD87A;}
	.st5{fill:#8CE5E6;}
</style>
<g>
	<g>
		<path class="st0" d="M88.14,53.09V21.34c0-0.8,0.3-1.49,0.9-2.07c0.6-0.58,1.32-0.87,2.15-0.87c0.87,0,1.6,0.28,2.18,0.85
			c0.58,0.57,0.87,1.26,0.87,2.1v29.29h15.82c0.73,0,1.35,0.26,1.86,0.79c0.51,0.53,0.76,1.15,0.76,1.88c0,0.76-0.25,1.41-0.76,1.94
			c-0.51,0.53-1.13,0.79-1.86,0.79H91.19c-0.84,0-1.55-0.29-2.15-0.87C88.44,54.58,88.14,53.89,88.14,53.09z"/>
		<path class="st0" d="M135.36,50.03c0.58,0,1.07,0.23,1.47,0.68c0.4,0.46,0.6,0.99,0.6,1.61c0,1.09-0.85,2.02-2.56,2.78
			c-2.25,0.98-4.75,1.47-7.47,1.47c-4.18,0-7.45-1.27-9.82-3.82c-2.29-2.4-3.44-5.54-3.44-9.44c0-3.64,1.15-6.65,3.44-9.05
			c2.25-2.36,5.29-3.55,9.11-3.55c3.6,0,6.53,1.13,8.78,3.38c2,2.11,3,4.76,3,7.96c0,0.91-0.25,1.65-0.76,2.24
			c-0.51,0.58-1.2,0.87-2.07,0.87h-15.6c0.18,1.82,0.8,3.33,1.85,4.53c1.42,1.64,3.38,2.45,5.89,2.45c1.71,0,3.36-0.36,4.96-1.09
			c0.22-0.11,0.48-0.24,0.79-0.38c0.31-0.14,0.54-0.26,0.68-0.36c0.14-0.09,0.33-0.16,0.55-0.22
			C134.98,50.06,135.18,50.03,135.36,50.03z M120.04,41.36h12.98c-0.04-1.71-0.56-3.14-1.58-4.31c-1.16-1.24-2.73-1.86-4.69-1.86
			c-2.18,0-3.87,0.65-5.07,1.96C120.69,38.29,120.15,39.69,120.04,41.36z"/>
		<path class="st0" d="M141.85,31.22h2.07v-3.87c0-0.76,0.27-1.41,0.82-1.94c0.55-0.53,1.2-0.79,1.96-0.79
			c0.76,0,1.43,0.26,1.99,0.79c0.56,0.53,0.85,1.17,0.85,1.94v3.87h6.22c0.58,0,1.08,0.22,1.5,0.65c0.42,0.44,0.63,0.96,0.63,1.58
			c0,0.58-0.21,1.09-0.63,1.53c-0.42,0.44-0.92,0.65-1.5,0.65h-6.22v11.89c0,2.91,1.16,4.36,3.49,4.36c0.87,0,1.77-0.3,2.7-0.9
			c0.93-0.6,1.63-0.9,2.1-0.9c0.69,0,1.22,0.21,1.58,0.63c0.36,0.42,0.55,0.95,0.55,1.61c0,1.2-1,2.27-3,3.22
			c-1.56,0.69-3.22,1.04-4.96,1.04c-2.8,0-4.85-0.78-6.14-2.35c-1.29-1.56-1.94-3.64-1.94-6.22V35.64h-2.07
			c-0.58,0-1.08-0.21-1.5-0.63c-0.42-0.42-0.63-0.94-0.63-1.55c0-0.62,0.21-1.15,0.63-1.58C140.77,31.44,141.27,31.22,141.85,31.22z
			"/>
		<path class="st0" d="M180.11,34.16c0,0.62-0.21,1.14-0.63,1.58c-0.42,0.44-0.94,0.65-1.55,0.65c-0.51,0-1.39-0.18-2.64-0.55
			c-1.25-0.36-2.34-0.55-3.25-0.55c-2.58,0-3.87,0.78-3.87,2.35c0,1.13,0.85,2.07,2.56,2.84c0.4,0.18,1.26,0.51,2.59,0.98
			c1.33,0.47,2.3,0.86,2.92,1.15c2.98,1.45,4.47,3.56,4.47,6.33c0,2.29-0.88,4.14-2.65,5.54c-1.76,1.4-4.12,2.1-7.06,2.1
			c-1.42,0-2.77-0.1-4.06-0.3c-1.29-0.2-2.48-0.64-3.57-1.31c-1.09-0.67-1.64-1.52-1.64-2.54c0-0.58,0.21-1.09,0.63-1.53
			c0.42-0.44,0.94-0.65,1.55-0.65c0.51,0,1.4,0.33,2.67,0.98c1.27,0.65,2.62,0.98,4.04,0.98c2.8,0,4.2-0.93,4.2-2.78
			c0-0.76-0.24-1.37-0.71-1.83c-0.47-0.45-1.18-0.9-2.13-1.34c-0.47-0.22-1.36-0.55-2.67-1.01c-1.31-0.45-2.29-0.83-2.95-1.12
			c-2.73-1.27-4.09-3.4-4.09-6.38c0-2.22,0.82-3.94,2.45-5.18c1.64-1.24,3.96-1.85,6.98-1.85c2.44,0,4.45,0.27,6.03,0.82
			C179.32,32.09,180.11,32.96,180.11,34.16z"/>
		<path class="st0" d="M188.87,18.89h20.62c0.73,0,1.35,0.27,1.85,0.82s0.76,1.18,0.76,1.91c0,0.73-0.25,1.36-0.76,1.88
			s-1.13,0.79-1.85,0.79h-17.56v10.42h15c0.73,0,1.35,0.26,1.86,0.79c0.51,0.53,0.76,1.15,0.76,1.88c0,0.76-0.25,1.41-0.76,1.94
			c-0.51,0.53-1.13,0.79-1.86,0.79h-15v13.53c0,0.8-0.3,1.49-0.9,2.07c-0.6,0.58-1.32,0.87-2.15,0.87c-0.84,0-1.55-0.29-2.15-0.87
			c-0.6-0.58-0.9-1.27-0.9-2.07v-31.8c0-0.8,0.3-1.49,0.9-2.07C187.32,19.18,188.03,18.89,188.87,18.89z"/>
		<path class="st0" d="M212.58,49.11c0-2.94,1.6-5.07,4.8-6.38c2.14-0.87,5.64-1.51,10.47-1.91v-0.65c0-1.64-0.35-2.87-1.04-3.71
			c-0.8-0.95-2.02-1.42-3.65-1.42c-1.49,0-3.04,0.35-4.64,1.04c-1.35,0.58-2.24,0.87-2.67,0.87c-0.58,0-1.06-0.19-1.45-0.57
			c-0.38-0.38-0.57-0.86-0.57-1.45c0-1.09,0.96-2.04,2.89-2.84c2.25-0.91,4.6-1.36,7.04-1.36c3.38,0,5.91,0.93,7.58,2.78
			c1.38,1.56,2.07,3.78,2.07,6.65v13.69c0,0.76-0.27,1.41-0.82,1.94c-0.55,0.53-1.2,0.79-1.96,0.79c-1.24,0-2.09-0.51-2.56-1.53
			c-1.89,1.02-4.2,1.53-6.93,1.53c-2.36,0-4.38-0.66-6.05-1.99C213.42,53.26,212.58,51.44,212.58,49.11z M222.89,52.49
			c1.71,0,3.36-0.47,4.96-1.42v-6.38c-6.62,0.36-9.93,1.8-9.93,4.31c0,1.13,0.48,1.99,1.45,2.59
			C220.34,52.19,221.51,52.49,222.89,52.49z"/>
		<path class="st0" d="M239.32,33.51c0-0.76,0.26-1.41,0.79-1.94c0.53-0.53,1.19-0.79,1.99-0.79c0.8,0,1.46,0.26,1.99,0.79
			c0.53,0.53,0.79,1.17,0.79,1.94v0.05c1.6-1.85,3.84-2.78,6.71-2.78c1.96,0,3.67,0.44,5.13,1.31c1.31,0.8,2.25,1.82,2.84,3.05
			c0.95-1.42,2.04-2.49,3.27-3.22c1.31-0.76,2.96-1.14,4.96-1.14c2.87,0,5.16,0.8,6.87,2.4c1.75,1.64,2.62,4.16,2.62,7.58v13.15
			c0,0.73-0.28,1.36-0.85,1.91c-0.56,0.55-1.21,0.82-1.94,0.82c-0.8,0-1.46-0.26-1.99-0.79c-0.53-0.53-0.79-1.17-0.79-1.94V42.18
			c0-2.25-0.47-3.96-1.42-5.13c-0.91-1.02-2.18-1.53-3.82-1.53c-1.89,0-3.29,0.75-4.2,2.24c-0.8,1.31-1.2,3.22-1.2,5.73v10.42
			c0,0.73-0.28,1.36-0.85,1.91c-0.56,0.55-1.21,0.82-1.94,0.82c-0.76,0-1.42-0.26-1.96-0.79c-0.55-0.53-0.82-1.17-0.82-1.94V42.18
			c0-2.25-0.47-3.96-1.42-5.13c-0.91-1.02-2.18-1.53-3.82-1.53c-1.89,0-3.29,0.8-4.2,2.4c-0.73,1.27-1.13,3.2-1.2,5.78v10.14
			c0,0.76-0.28,1.42-0.85,1.96c-0.56,0.55-1.21,0.82-1.94,0.82c-0.8,0-1.46-0.27-1.99-0.82c-0.53-0.55-0.79-1.2-0.79-1.96V33.51z"/>
		<path class="st0" d="M285.84,23.09c-0.95,0-1.73-0.31-2.35-0.93c-0.62-0.62-0.93-1.4-0.93-2.35c0-0.91,0.32-1.67,0.95-2.29
			c0.64-0.62,1.41-0.93,2.32-0.93s1.67,0.31,2.29,0.93c0.62,0.62,0.93,1.38,0.93,2.29c0,0.91-0.31,1.68-0.93,2.32
			C287.52,22.77,286.75,23.09,285.84,23.09z M283.06,33.45c0-0.73,0.26-1.36,0.79-1.91c0.53-0.55,1.19-0.82,1.99-0.82
			s1.46,0.27,1.99,0.82c0.53,0.55,0.79,1.18,0.79,1.91v20.4c0,0.76-0.27,1.41-0.82,1.94c-0.55,0.53-1.2,0.79-1.96,0.79
			c-0.8,0-1.46-0.26-1.99-0.79c-0.53-0.53-0.79-1.17-0.79-1.94V33.45z"/>
		<path class="st0" d="M294.81,53.85V21.18c0-0.76,0.27-1.41,0.82-1.94c0.55-0.53,1.2-0.79,1.96-0.79c0.8,0,1.46,0.26,1.99,0.79
			c0.53,0.53,0.79,1.17,0.79,1.94v32.67c0,0.76-0.27,1.41-0.82,1.94c-0.55,0.53-1.2,0.79-1.96,0.79c-0.76,0-1.42-0.26-1.96-0.79
			C295.08,55.26,294.81,54.62,294.81,53.85z"/>
		<path class="st0" d="M325.8,30.73c0.84,0,1.56,0.29,2.15,0.87c0.6,0.58,0.9,1.29,0.9,2.13c0,0.36-0.2,1.09-0.6,2.18l-8.29,21.44
			c-1.42,3.74-3.27,6.58-5.56,8.51c-2.29,1.93-4.78,2.89-7.47,2.89c-0.76,0-1.41-0.26-1.94-0.79c-0.53-0.53-0.79-1.17-0.79-1.94
			c0-0.73,0.26-1.36,0.79-1.88c0.53-0.53,1.17-0.79,1.94-0.79c2.98,0,5.31-1.91,6.98-5.73l-9.82-21.71
			c-0.44-0.95-0.65-1.64-0.65-2.07c0-0.87,0.31-1.61,0.93-2.21c0.62-0.6,1.35-0.9,2.18-0.9c1.42,0,2.4,0.67,2.95,2.02l7.2,17.62
			l6.11-17.13C323.42,31.56,324.42,30.73,325.8,30.73z"/>
		<path class="st0" d="M334.94,50.72c0.65,0.67,0.98,1.48,0.98,2.43c0,0.95-0.33,1.75-0.98,2.43c-0.65,0.67-1.45,1.01-2.4,1.01
			c-0.95,0-1.76-0.34-2.43-1.01c-0.67-0.67-1.01-1.48-1.01-2.43c0-0.94,0.34-1.75,1.01-2.43c0.67-0.67,1.48-1.01,2.43-1.01
			C333.48,49.71,334.28,50.04,334.94,50.72z"/>
		<path class="st0" d="M360.14,50.03c0.58,0,1.07,0.23,1.47,0.68c0.4,0.46,0.6,0.99,0.6,1.61c0,1.09-0.85,2.02-2.56,2.78
			c-2.26,0.98-4.75,1.47-7.47,1.47c-4.18,0-7.45-1.27-9.82-3.82c-2.29-2.4-3.44-5.54-3.44-9.44c0-3.64,1.14-6.65,3.44-9.05
			c2.25-2.36,5.29-3.55,9.11-3.55c3.6,0,6.53,1.13,8.78,3.38c2,2.11,3,4.76,3,7.96c0,0.91-0.25,1.65-0.76,2.24
			c-0.51,0.58-1.2,0.87-2.07,0.87h-15.6c0.18,1.82,0.8,3.33,1.85,4.53c1.42,1.64,3.38,2.45,5.89,2.45c1.71,0,3.36-0.36,4.96-1.09
			c0.22-0.11,0.48-0.24,0.79-0.38c0.31-0.14,0.54-0.26,0.68-0.36c0.14-0.09,0.33-0.16,0.55-0.22
			C359.76,50.06,359.96,50.03,360.14,50.03z M344.81,41.36h12.98c-0.04-1.71-0.56-3.14-1.58-4.31c-1.16-1.24-2.73-1.86-4.69-1.86
			c-2.18,0-3.87,0.65-5.07,1.96C345.47,38.29,344.92,39.69,344.81,41.36z"/>
		<path class="st0" d="M384.4,34.16c0,0.62-0.21,1.14-0.63,1.58c-0.42,0.44-0.94,0.65-1.55,0.65c-0.51,0-1.39-0.18-2.64-0.55
			c-1.26-0.36-2.34-0.55-3.25-0.55c-2.58,0-3.87,0.78-3.87,2.35c0,1.13,0.86,2.07,2.56,2.84c0.4,0.18,1.26,0.51,2.59,0.98
			c1.33,0.47,2.3,0.86,2.92,1.15c2.98,1.45,4.47,3.56,4.47,6.33c0,2.29-0.88,4.14-2.64,5.54c-1.76,1.4-4.12,2.1-7.06,2.1
			c-1.42,0-2.77-0.1-4.06-0.3c-1.29-0.2-2.48-0.64-3.57-1.31c-1.09-0.67-1.64-1.52-1.64-2.54c0-0.58,0.21-1.09,0.63-1.53
			c0.42-0.44,0.94-0.65,1.55-0.65c0.51,0,1.4,0.33,2.67,0.98c1.27,0.65,2.62,0.98,4.04,0.98c2.8,0,4.2-0.93,4.2-2.78
			c0-0.76-0.24-1.37-0.71-1.83c-0.47-0.45-1.18-0.9-2.13-1.34c-0.47-0.22-1.36-0.55-2.67-1.01c-1.31-0.45-2.29-0.83-2.95-1.12
			c-2.73-1.27-4.09-3.4-4.09-6.38c0-2.22,0.82-3.94,2.45-5.18c1.64-1.24,3.96-1.85,6.98-1.85c2.44,0,4.45,0.27,6.03,0.82
			C383.61,32.09,384.4,32.96,384.4,34.16z"/>
	</g>
	<g>
		<g>
			<path class="st1" d="M26.79,1.16c5.94,1.72,9.72,6.12,14.14,25.9s4.28,32.83,3.1,38.31c-1.15,5.37-3.66,10.42-9.13,5.23
				S16.35,54.75,10.66,46.58S-3.55,25.63,3.94,14.7S22.33-0.13,26.79,1.16z"/>
		</g>
		<g>
			<path class="st2" d="M35.11,25.62c1.34-7.7,2.55-14.69,8.95-16.72s14.04,1.91,18.06,3.59s13.02,7.96,10.53,17.32
				S62.34,51.99,52.73,61.76S42.37,72.99,39.47,72.14c-3.87-1.13-5.3-18.44-5.68-27.91S35.11,25.62,35.11,25.62z"/>
		</g>
		<g>
			<path class="st3" d="M44.02,65.38c1.18-5.48,1.32-18.52-3.1-38.31c-1.09-4.88-2.14-8.82-3.2-12.02
				c-1.3,2.98-1.94,6.69-2.61,10.57c0,0-1.71,9.15-1.33,18.62c0.38,9.47,1.8,26.78,5.68,27.91c0.39,0.11,0.74,0.18,1.08,0.2
				C42.31,71.28,43.38,68.38,44.02,65.38z"/>
		</g>
		<g>
			<g>
				<path class="st4" d="M39.2,73.08c-1.03,0.02-2.03-0.18-3-0.47c-1.32-0.4-2.63-0.79-3.93-1.24c-5.12-1.77-10.09-3.87-14.85-6.47
					c-2.2-1.2-4.33-2.52-6.32-4.04c-2.22-1.7-4.29-3.55-5.79-5.95c-0.85-1.36-1.45-2.8-1.62-4.41C3.41,48,4.27,45.83,5.63,43.85
					c1.18-1.72,2.67-3.16,4.26-4.49c0.94-0.79,2-1.42,3.11-1.94c2.16-1.01,4.41-1.26,6.72-0.67c1.8,0.45,3.38,1.35,4.85,2.47
					c1.84,1.41,3.36,3.13,4.79,4.93c0.78,0.98,1.44,2.06,2.15,3.11c1.2,1.78,2.25,3.66,3.2,5.58c1.95,3.93,3.8,7.9,5.3,12.03
					c0.82,2.19,1.55,4.2,1.61,5.2C41.67,71.06,40.88,72.94,39.2,73.08z"/>
			</g>
		</g>
		<g>
			<g>
				<path class="st5" d="M37.23,71.24c0.04-0.72,0.22-1.41,0.48-2.07c0.34-0.9,0.69-1.8,1.06-2.68c1.49-3.48,3.2-6.85,5.26-10.04
					c0.95-1.48,1.97-2.9,3.14-4.21c1.3-1.47,2.69-2.82,4.45-3.75c0.99-0.53,2.03-0.87,3.16-0.91c1.75-0.06,3.22,0.64,4.53,1.69
					c1.14,0.91,2.07,2.02,2.93,3.2c0.5,0.7,0.89,1.46,1.2,2.27c0.6,1.56,0.66,3.14,0.13,4.73c-0.41,1.23-1.11,2.3-1.97,3.26
					c-1.07,1.21-2.35,2.19-3.68,3.1c-0.73,0.5-1.51,0.91-2.28,1.35c-1.3,0.75-2.66,1.39-4.05,1.96c-2.84,1.17-5.71,2.26-8.67,3.1
					c-1.57,0.47-3.01,0.87-3.71,0.86S37.24,72.42,37.23,71.24z"/>
			</g>
		</g>
	</g>
</g>
</svg>
